<svg width="22" height="27" viewBox="0 0 22 27" fill="none" xmlns="http://www.w3.org/2000/svg">
<path d="M17.3333 2.85333V0H13.3333V2.66667H8V0H4V2.85333C1.70667 3.45333 0 5.52 0 8V24C0 25.4667 1.2 26.6667 2.66667 26.6667H18.6667C20.1333 26.6667 21.3333 25.4667 21.3333 24V8C21.3333 5.52 19.6267 3.45333 17.3333 2.85333ZM18.6667 24H2.66667V8C2.66667 6.53333 3.86667 5.33333 5.33333 5.33333H16C17.4667 5.33333 18.6667 6.53333 18.6667 8V24ZM16.6667 13.3333V18.6667H14V16H4.66667V13.3333H16.6667Z" fill="#020035"/>
</svg>
