<svg width="26" height="21" viewBox="0 0 26 21" fill="none" xmlns="http://www.w3.org/2000/svg">
<path d="M17 1V3.66667M17 9V11.6667M17 17V19.6667M3.66667 1C2.19391 1 1 2.19391 1 3.66667V7.66667C2.47276 7.66667 3.66667 8.86057 3.66667 10.3333C3.66667 11.8061 2.47276 13 1 13V17C1 18.4728 2.19391 19.6667 3.66667 19.6667H22.3333C23.8061 19.6667 25 18.4728 25 17V13C23.5272 13 22.3333 11.8061 22.3333 10.3333C22.3333 8.86057 23.5272 7.66667 25 7.66667V3.66667C25 2.19391 23.8061 1 22.3333 1H3.66667Z" stroke="#020035" stroke-width="2" stroke-linecap="round" stroke-linejoin="round"/>
</svg>
